<?xml version="1.0" encoding="UTF-8" standalone="no"?>
<!-- Created with Inkscape (http://www.inkscape.org/) -->

<svg
   xmlns:dc="http://purl.org/dc/elements/1.1/"
   xmlns:cc="http://creativecommons.org/ns#"
   xmlns:rdf="http://www.w3.org/1999/02/22-rdf-syntax-ns#"
   xmlns:svg="http://www.w3.org/2000/svg"
   xmlns="http://www.w3.org/2000/svg"
   xmlns:sodipodi="http://sodipodi.sourceforge.net/DTD/sodipodi-0.dtd"
   xmlns:inkscape="http://www.inkscape.org/namespaces/inkscape"
   width="185.31854"
   height="195.75539"
   id="svg2"
   version="1.1"
   inkscape:version="0.47 r22583"
   sodipodi:docname="Novo documento 1">
  <defs
     id="defs4">
    <inkscape:perspective
       sodipodi:type="inkscape:persp3d"
       inkscape:vp_x="0 : 526.18109 : 1"
       inkscape:vp_y="0 : 1000 : 0"
       inkscape:vp_z="744.09448 : 526.18109 : 1"
       inkscape:persp3d-origin="372.04724 : 350.78739 : 1"
       id="perspective10" />
    <inkscape:perspective
       id="perspective2824"
       inkscape:persp3d-origin="0.5 : 0.33333333 : 1"
       inkscape:vp_z="1 : 0.5 : 1"
       inkscape:vp_y="0 : 1000 : 0"
       inkscape:vp_x="0 : 0.5 : 1"
       sodipodi:type="inkscape:persp3d" />
  </defs>
  <sodipodi:namedview
     id="base"
     pagecolor="#ffffff"
     bordercolor="#666666"
     borderopacity="1.0"
     inkscape:pageopacity="0.0"
     inkscape:pageshadow="2"
     inkscape:zoom="1.979899"
     inkscape:cx="111.38843"
     inkscape:cy="92.540876"
     inkscape:document-units="px"
     inkscape:current-layer="layer1"
     showgrid="false"
     inkscape:window-width="1600"
     inkscape:window-height="838"
     inkscape:window-x="-8"
     inkscape:window-y="-8"
     inkscape:window-maximized="1" />
  <metadata
     id="metadata7">
    <rdf:RDF>
      <cc:Work
         rdf:about="">
        <dc:format>image/svg+xml</dc:format>
        <dc:type
           rdf:resource="http://purl.org/dc/dcmitype/StillImage" />
        <dc:title></dc:title>
      </cc:Work>
    </rdf:RDF>
  </metadata>
  <g
     inkscape:label="Camada 1"
     inkscape:groupmode="layer"
     id="layer1"
     transform="translate(-307.64383,-471.89372)">
    <path
       style="fill:#fff;fill-opacity:1;stroke:#000000;stroke-width:1.10239613px;stroke-linecap:butt;stroke-linejoin:miter;stroke-opacity:1"
       d="m 308.19503,484.2563 c 1.02095,3.83957 3.5595,5.32974 6.63061,2.33015 1.56097,-4.41907 4.79578,-2.2463 7.86162,-0.73895 2.89548,2.1353 4.37495,6.01088 7.80479,7.76186 3.45205,2.45394 6.77032,5.02354 8.33321,9.11099 2.80411,5.87777 9.04553,8.91481 13.51706,13.41456 7.1367,6.57753 14.91009,12.32216 23.07451,17.55519 5.85417,3.52812 11.04375,7.8598 15.61913,12.93407 2.95162,7.76002 0.69319,17.45517 3.24858,25.77634 2.36606,11.93724 4.7827,24.36031 1.39933,36.35519 -1.47691,9.77505 -2.34098,19.76597 -3.0899,29.56845 1.17226,2.9224 0.6157,7.76695 5.01708,7.09917 3.29913,0.57626 7.88462,0.15159 5.94259,4.80609 -0.23798,3.23337 -0.46505,6.46829 -1.26123,9.62285 4.87784,4.19612 12.72916,1.5834 18.36964,5.89973 3.99202,2.36155 11.96294,1.3046 12.73367,-0.78147 0.88503,-2.39543 -7.17352,-5.58758 -11.41767,-7.48054 -3.28011,-2.14228 -6.54428,-4.29861 -7.81393,-8.21218 -0.84442,-4.54391 0.55008,-9.56171 0.58038,-14.29076 1.16578,-8.50202 3.17392,-16.89538 3.29642,-25.53004 2.77095,-6.94062 3.22608,-14.51747 1.7204,-21.80577 -0.92732,-8.07191 -2.57731,-16.09738 -2.11411,-24.25863 4.4401,-2.96556 10.01028,-0.81857 15.01364,-1.23588 7.51607,-0.42145 14.91811,-2.43686 22.38908,-3.48868 2.48022,2.30694 5.63928,4.23138 5.46517,8.03393 2.67594,3.33441 -6.21382,5.26028 -4.0402,1.50242 2.16357,-3.18387 -2.66131,-7.61622 -2.90743,-2.20542 -0.62646,4.35082 -4.29302,7.72976 -3.24209,12.3398 -0.5811,3.70193 5.11935,2.80019 7.48054,4.34576 3.18261,-1.80903 6.57013,-3.24074 9.05255,-5.97931 2.07166,-2.28543 3.82434,-3.85652 3.99181,-7.37599 1.17288,-6.89823 6.79039,-13.13762 6.91972,-19.8499 0.11517,-5.97835 -2.66822,-11.95979 -3.82185,-17.97747 3.07097,-2.14939 6.98831,-2.42386 10.2243,-3.9249 3.16511,-3.30318 7.48992,-6.03036 8.1149,-10.81978 0.81131,-6.21732 -2.37841,-14.58231 -9.1523,-15.32131 -3.59747,-0.39248 -9.35006,1.65709 -11.30211,5.32863 -2.63724,2.64121 -4.44913,6.31497 -7.06986,8.72597 -3.43554,2.02327 -5.35556,-2.37333 -7.95127,-3.90766 -3.45649,-4.08214 -9.29133,-3.40755 -14.00253,-4.98027 -8.04507,-2.03845 -16.44692,-2.44469 -24.7061,-2.51881 -4.47177,-0.63039 -9.36345,1.59432 -7.93652,6.78436 -0.23897,3.36547 3.85788,5.02193 5.51198,7.64124 3.19976,1.6909 1.12183,6.87688 -2.13409,6.61952 -3.38767,0.76195 -6.73227,1.30543 -9.44591,-1.35136 -11.52901,-6.97386 -23.43807,-13.37556 -33.9707,-21.84951 -11.02931,-8.83209 -23.78247,-15.04676 -35.8657,-22.26308 -3.36363,-2.453 -7.23769,-3.3831 -11.19729,-4.32024 -3.63986,-1.62052 -7.6942,-1.29349 -11.32651,-2.89974 -4.15447,1.20853 -2.96998,6.81805 -3.46161,10.25704 -0.0272,0.51811 -0.0546,1.03623 -0.0818,1.55434 z"
       id="path2830"
       sodipodi:nodetypes="cccccccccccccccscccccccccccccscsccssccccccccccccccc" />
  </g>
</svg>
